HIERARCHY
ROOT Hips
{
	OFFSET -3.958830 18.904000 13.208200
	CHANNELS 6 Xposition Yposition Zposition Zrotation Yrotation Xrotation 
	JOINT LHipJoint
	{
		OFFSET 0.000000 0.000000 0.000000
		CHANNELS 3 Zrotation Yrotation Xrotation
		JOINT LeftUpLeg
		{
			OFFSET 1.800000 -1.400000 0.085000
			CHANNELS 3 Zrotation Yrotation Xrotation
			JOINT LeftLeg
			{
				OFFSET 2.215000 -6.000000 0.000000
				CHANNELS 3 Zrotation Yrotation Xrotation
				JOINT LeftFoot
				{
					OFFSET 2.500000 -6.900000 0.000000
					CHANNELS 3 Zrotation Yrotation Xrotation
					JOINT LeftToeBase
					{
						OFFSET 0.200000 -0.500000 1.950000
						CHANNELS 3 Zrotation Yrotation Xrotation
						End Site
						{
							OFFSET 0.000000 0.000000 0.000000
						}
					}
				}
			}
		}
	}
	JOINT RHipJoint
	{
		OFFSET 0.000000 0.000000 0.000000
		CHANNELS 3 Zrotation Yrotation Xrotation
		JOINT RightUpLeg
		{
			OFFSET -1.800000 -1.400000 0.085000
			CHANNELS 3 Zrotation Yrotation Xrotation
			JOINT RightLeg
			{
				OFFSET -2.215000 -6.000000 0.000000
				CHANNELS 3 Zrotation Yrotation Xrotation
				JOINT RightFoot
				{
					OFFSET -2.500000 -6.900000 0.000000
					CHANNELS 3 Zrotation Yrotation Xrotation
					JOINT RightToeBase
					{
						OFFSET -0.200000 -0.500000 1.950000
						CHANNELS 3 Zrotation Yrotation Xrotation
						End Site
						{
							OFFSET 0.000000 0.000000 0.000000
						}
					}
				}
			}
		}
	}
	JOINT LowerBack
	{
		OFFSET 0.000000 0.000000 0.000000
		CHANNELS 3 Zrotation Yrotation Xrotation
		JOINT Spine
		{
			OFFSET -0.087000 1.940000 -0.288900
			CHANNELS 3 Zrotation Yrotation Xrotation
			JOINT Spine1
			{
				OFFSET 0.000000 1.950000 0.060000
				CHANNELS 3 Zrotation Yrotation Xrotation
				JOINT Neck
				{
					OFFSET 0.000000 0.000000 0.000000
					CHANNELS 3 Zrotation Yrotation Xrotation
					JOINT Neck1
					{
						OFFSET 0.000000 1.600000 0.340000
						CHANNELS 3 Zrotation Yrotation Xrotation
						JOINT Head
						{
							OFFSET 0.000000 1.667000 -0.240000
							CHANNELS 3 Zrotation Yrotation Xrotation
							End Site
							{
								OFFSET 0.000000 0.000000 0.000000
							}
						}
					}
				}
				JOINT LeftShoulder
				{
					OFFSET 0.000000 0.000000 0.000000
					CHANNELS 3 Zrotation Yrotation Xrotation
					JOINT LeftArm
					{
						OFFSET 2.700000 1.550000 -0.730000
						CHANNELS 3 Zrotation Yrotation Xrotation
						JOINT LeftForeArm
						{
							OFFSET 5.450000 0.000000 0.000000
							CHANNELS 3 Zrotation Yrotation Xrotation
							JOINT LeftHand
							{
								OFFSET 3.450000 0.000000 0.000000
								CHANNELS 3 Zrotation Yrotation Xrotation
								JOINT LeftHandIndex1
								{
									OFFSET 0.750000 0.000000 0.000000
									CHANNELS 3 Zrotation Yrotation Xrotation
									End Site
									{
										OFFSET 0.000000 0.000000 0.000000
									}
								}
							}
						}
					}
				}
				JOINT RightShoulder
				{
					OFFSET 0.000000 0.000000 0.000000
					CHANNELS 3 Zrotation Yrotation Xrotation
					JOINT RightArm
					{
						OFFSET -2.700000 1.550000 -0.730000
						CHANNELS 3 Zrotation Yrotation Xrotation
						JOINT RightForeArm
						{
							OFFSET -5.450000 0.000000 0.000000
							CHANNELS 3 Zrotation Yrotation Xrotation
							JOINT RightHand
							{
								OFFSET -3.450000 0.000000 0.000000
								CHANNELS 3 Zrotation Yrotation Xrotation
								JOINT RightHandIndex1
								{
									OFFSET -0.750000 0.000000 0.000000
									CHANNELS 3 Zrotation Yrotation Xrotation
									End Site
									{
										OFFSET 0.000000 0.000000 0.000000
									}
								}
							}
						}
					}
				}
			}
		}
	}
}
MOTION
Frames: 8
Frame Time: 0.016667
0.651740 16.149750 -5.675660 8.487697 -4.522256 16.596680 -14.800709 11.008157 2.514147 24.640454 -0.426567 -29.586902 4.534661 4.077305 12.138082 -0.271598 3.818778 3.222034 0.249330 -0.002170 0.106050 19.195963 -8.856355 5.228038 -21.672679 8.874000 -55.225440 8.850639 -17.449542 54.527071 -1.075287 -9.455415 1.092409 0.025760 0.366150 0.260030 -5.506698 0.284104 -8.253180 38.973245 -13.037773 12.709469 -24.717001 -3.919427 4.044548 6.542344 -12.474435 -7.237628 -22.729450 8.704273 28.463413 -6.364040 2.813180 -0.500170 -0.195889 17.038738 -2.077143 -47.525728 4.577285 -8.556842 15.788480 -21.200575 -3.326835 -4.053822 3.094920 0.116820 0.259350 -0.181540 0.220200 -14.456968 -6.122636 7.027878 22.059899 7.553233 -2.759933 -25.278699 14.774927 -3.044664 2.570069 -2.013169 -0.066560 0.047660 -0.029870 -0.015380 
0.666800 16.102130 -5.653460 9.702431 -3.268404 16.767733 -14.797720 10.965047 2.335758 24.109621 -0.844512 -27.293633 4.051888 3.699404 9.230961 -0.282095 3.632810 3.303770 0.263260 0.039420 0.099250 19.213212 -8.852684 5.271922 -22.047250 8.176288 -56.686480 6.241193 -17.450179 57.825048 -1.141258 -9.945029 0.936025 0.060370 0.396400 0.290210 -5.522738 0.311133 -8.170332 38.826167 -13.129947 10.050747 -25.368633 -4.409541 6.202268 6.516618 -11.953612 -7.644413 -21.640462 8.175034 27.353329 -6.624890 3.003170 0.500540 0.808602 15.156786 -1.832897 -45.019599 3.070031 -5.830991 12.332764 -8.023342 -1.397394 -4.244882 3.039133 0.029890 0.323930 -0.215760 0.223910 -15.052952 -4.940806 7.813421 18.040385 8.309194 0.270369 -15.521347 5.160695 -1.026083 2.638788 -1.824463 -0.037100 0.016350 -0.035330 0.003700 
0.687050 16.074130 -5.643920 10.522617 -1.815494 16.782954 -14.806491 10.901780 2.284373 23.902226 -1.186608 -25.733467 2.937576 3.597782 7.327414 -0.321906 3.640545 3.310495 0.260280 0.039150 0.107480 19.215843 -8.817672 5.283471 -22.579692 7.364434 -57.588787 4.803929 -17.692287 59.891913 -1.188812 -10.315145 0.797793 0.087100 0.425950 0.321090 -5.497197 0.285886 -8.152487 38.633686 -13.487419 8.735131 -25.249406 -5.087778 6.936027 6.427899 -11.502132 -7.389996 -20.268743 8.286314 25.772417 -7.125570 3.946270 0.530270 0.824831 14.810884 -1.817468 -43.006504 3.338338 -4.938310 9.598607 -3.570876 -0.854176 -4.356661 3.018825 -0.008360 0.379400 -0.245280 0.206430 -14.768066 -5.322051 7.806134 15.689415 8.306335 1.253804 -12.898203 2.701783 -0.759036 2.628103 -1.782466 -0.044690 0.001320 -0.015570 -0.007490 
0.711390 16.046550 -5.650090 11.355730 -0.216549 17.081894 -14.815592 10.788047 2.314015 23.548274 -1.591668 -24.552111 1.737165 3.423868 4.940999 -0.345133 3.635006 3.334794 0.287740 0.081700 0.140240 19.219604 -8.745185 5.309819 -23.171257 6.510759 -58.657136 3.449424 -17.854724 61.772817 -1.252415 -10.643745 0.690227 0.130120 0.443920 0.349520 -5.470258 0.255626 -8.204352 37.720542 -13.411936 7.880003 -24.324776 -5.529132 7.118837 6.467540 -10.390938 -6.792596 -17.591761 7.708387 24.504009 -7.934900 4.821300 0.024390 0.260114 14.743098 -2.026222 -40.928529 3.635963 -4.689093 8.038132 -2.500870 -0.777992 -4.418678 3.016375 -0.041060 0.430360 -0.250660 0.212790 -14.240887 -6.482417 7.500657 14.808818 7.646780 1.171071 -14.352686 2.838466 -0.902218 2.609525 -1.867311 -0.044400 -0.000540 -0.030580 -0.015520 
0.742640 16.025850 -5.648990 12.192222 1.099239 17.448121 -14.826630 10.644175 2.373527 23.005966 -1.994151 -23.662932 0.170632 3.310933 2.870636 -0.381721 3.682524 3.349380 0.302240 0.091050 0.173060 19.223324 -8.685827 5.309437 -24.075194 5.472932 -59.269620 3.061022 -18.294664 62.565324 -1.282558 -10.860775 0.616657 0.163860 0.461560 0.352730 -5.444450 0.275896 -8.235741 37.241362 -13.406897 6.690119 -24.065629 -5.736090 7.994592 6.647460 -9.478962 -6.759074 -15.598179 6.668122 23.299776 -8.589730 4.867260 -0.286770 -0.681260 13.654027 -1.908820 -39.061533 3.985326 -4.357343 6.446797 -0.528005 -0.677227 -4.467162 2.985845 -0.049920 0.464630 -0.267480 0.214240 -13.488468 -6.613036 7.651654 13.846315 5.621424 0.807230 -15.326205 3.414485 -1.013933 2.579242 -1.921820 -0.071760 0.016530 -0.038760 -0.035710 
0.765130 16.004240 -5.643600 13.047250 2.016707 17.676631 -14.828693 10.512081 2.394228 22.323206 -2.295348 -22.919266 -0.860912 3.164820 1.252039 -0.404509 3.699734 3.361475 0.304400 0.095540 0.200320 19.237955 -8.660003 5.309833 -24.884858 4.611939 -59.770203 2.404798 -18.628210 63.730727 -1.321879 -11.095005 0.533014 0.183940 0.461880 0.356620 -5.450533 0.362956 -8.240687 36.843563 -13.143642 5.354155 -24.213007 -5.545119 9.434006 6.899301 -8.672099 -6.932548 -14.050553 5.690798 22.937614 -9.542460 4.931120 -0.375450 -2.105889 12.088879 -1.585169 -36.954302 4.419171 -4.089817 5.362101 0.546467 -0.651725 -4.500249 2.970902 -0.063360 0.489980 -0.274760 0.201440 -12.345713 -6.317092 7.935097 12.777500 3.114070 0.593337 -15.137293 2.767064 -0.944298 2.576199 -1.914632 -0.084680 0.019780 -0.040060 -0.052980 
0.785180 15.996770 -5.634760 13.568343 2.755450 17.546117 -14.825300 10.473806 2.395541 21.557256 -2.466596 -22.277633 -1.110286 2.981908 -0.014959 -0.417014 3.697549 3.374738 0.285350 0.072270 0.182470 19.242530 -8.701587 5.240573 -25.146073 4.023098 -59.515309 1.599126 -18.604288 64.482972 -1.319368 -11.212463 0.492724 0.183120 0.487710 0.366180 -5.452079 0.400541 -8.198835 36.951228 -13.205004 4.410964 -24.462411 -5.597551 10.493019 6.892802 -8.597819 -7.085256 -13.978936 5.775400 23.039372 -9.469210 4.900120 0.274390 -3.077496 11.159562 -1.371363 -36.092595 4.568479 -3.764897 4.943260 2.151391 -0.576673 -4.552528 2.974056 -0.086700 0.519910 -0.303920 0.189460 -11.205686 -5.950413 8.080860 10.623651 1.428286 0.781428 -13.830743 2.640794 -0.898280 2.542745 -1.897225 -0.090740 0.014040 -0.015630 -0.053940 
0.796680 15.994770 -5.630570 13.386387 3.251362 17.115081 -14.815079 10.483994 2.401901 21.510515 -2.471954 -21.812171 -0.789249 2.885072 -0.627009 -0.388403 3.697525 3.387030 0.279760 0.056720 0.180220 19.240297 -8.764685 5.182010 -25.145987 3.786846 -58.836197 1.910719 -18.944112 64.440200 -1.329930 -11.258194 0.478571 0.166930 0.489400 0.370930 -5.456154 0.445268 -8.189474 37.667723 -13.596783 4.248309 -24.943424 -5.839861 10.739933 7.065810 -8.560711 -7.101331 -13.954710 5.799258 23.480958 -9.248530 4.836610 0.770830 -3.138338 11.166856 -1.366222 -36.219416 4.917110 -3.862048 5.359244 2.939315 -0.479677 -4.557322 2.980447 -0.089230 0.515390 -0.304080 0.193870 -11.480635 -5.941072 8.273281 10.254322 1.554763 0.967318 -13.070510 2.225098 -0.844680 2.553221 -1.885837 -0.084410 0.003050 -0.019910 -0.048320 
